<?xml version="1.0" encoding="UTF-8" standalone="no"?>
<!-- Created with Inkscape (http://www.inkscape.org/) -->

<svg
   width="187.26442mm"
   height="159.78761mm"
   viewBox="0 0 187.26442 159.78761"
   version="1.1"
   id="svg5"
   xmlns="http://www.w3.org/2000/svg"
   xmlns:svg="http://www.w3.org/2000/svg">
  <defs
     id="defs2" />
  <g
     id="layer1"
     transform="translate(-1.1792895,-0.74942334)">
    <path
       id="path100"
       style="fill:#000000;fill-opacity:1;stroke:none;stroke-width:0.264583px;stroke-linecap:butt;stroke-linejoin:miter;stroke-opacity:1"
       d="m 34.399939,0.74942334 -5.138706,51.66919566 10.500651,1.326533 -0.21704,2.121834 11.08873,1.457793 2.153872,-13.349054 3.569293,3.383256 c 0,0 -1.366264,3.057922 -3.519168,8.219652 -2.152901,5.161727 -2.130102,9.061979 -2.130102,9.061979 l -11.150224,0.456303 c 3e-6,0 -0.676286,-0.313561 -6.12779,-6.943246 C 27.977951,51.523986 14.378519,52.328295 9.9910927,55.70214 8.0941238,57.160873 2.861939,60.426471 1.2660441,71.08828 0.23832596,85.14882 8.500917,90.347123 17.596829,93.437303 c 0,0 2.049346,1.159933 3.132111,1.778704 1.082765,0.61876 4.787304,1.583364 4.787304,1.583364 L 29.55889,97.036568 29.451403,87.00152 27.54041,86.893001 27.251022,76.961823 c 0.962853,0.944756 2.207535,2.069492 3.403925,2.860292 2.444689,1.6159 6.517431,2.297017 6.517431,2.297017 0,0 1.447811,1.487517 3.582728,2.421557 2.134918,0.934021 5.404837,0.884184 5.404837,0.884184 l 3.094903,-0.0057 -0.229444,-2.431891 2.123384,0.128675 c 0,0 0.0534,2.476709 1.350822,6.273517 1.297422,3.79681 2.308387,5.648751 2.308387,5.648751 l -6.46679,4.438488 c 0,0 -3.210311,-0.840359 -6.062162,-0.699698 -2.851846,0.140671 -7.738457,1.305055 -11.608075,4.600235 -6.618153,5.63572 -7.79507,13.42649 -7.178889,18.48725 0.791149,6.4978 4.654838,10.60891 6.446117,12.44317 3.770691,3.86116 10.40815,4.81676 10.40815,4.81676 0,0 0.567976,1.42729 3.13676,2.21588 2.568776,0.78859 2.649773,1.38353 7.996409,1.03405 5.033246,-0.32899 8.224692,-3.08621 11.190015,-6.2389 4.806257,-5.10995 1.997811,-16.21089 1.997811,-16.21089 l 5.903515,-5.63635 c 0,0 5.416632,3.46993 9.005652,5.00021 3.589017,1.53028 5.553149,2.03967 5.553149,2.03967 l -0.225824,2.57245 -13.486516,0.21497 -1.696538,17.971 10.926982,-0.0331 -0.02791,3.07785 2.952792,0.0207 -0.445969,12.54808 10.43192,0.0475 -0.05839,2.78949 16.189196,-0.185 -1.62109,-14.60841 15.89154,0.27027 -0.40463,-11.94604 -1.81074,-0.25322 -0.17519,-10.57558 -14.44356,-0.0103 c 0,0 3.86132,-1.15165 7.4843,-2.87838 3.62298,-1.72672 5.95984,-4.44211 5.95984,-4.44211 l 35.07435,28.2758 1.57509,-1.42731 3.85558,2.79208 12.99818,-15.02182 -4.07779,-2.94556 4.58938,-5.06636 -40.80164,-24.73544 c 0,0 1.22661,-1.775045 2.43602,-5.852356 0.8899,-2.999999 0.86042,-6.461104 0.86042,-6.461104 l 0.98185,-0.116789 -0.84801,7.389214 10.68152,0.897101 -0.091,2.131653 8.88266,0.151413 -0.32298,-2.303735 8.78396,5.293217 0.91622,-0.986504 4.33669,2.82257 18.04334,-21.542875 -3.68608,-3.463869 3.57033,-3.917075 -26.53688,-26.081611 -9.35912,9.134327 -0.17518,-2.91972 -1.97198,0.140044 5.30252,-1.057301 -2.63705,-31.837333 -1.418,-0.121955 -0.98185,-10.9523023 -40.22855,0.031004 -0.6687,18.6608773 10.52649,0.200503 -4.99711,5.053955 c 0.29275,-0.06849 -5.2014,-4.220872 -13.10979,-6.374802 -2.762473,-0.75239 -5.783001,-1.385306 -9.00462,-1.344105 -4.743035,0.06065 -9.484149,1.007002 -13.407451,2.473233 -6.370381,2.380763 -10.754381,5.71128 -10.754381,5.71128 l -2.696993,-2.438093 5.380032,-5.075143 -3.49436,-3.624069 3.451468,-2.905249 -13.25242,-13.2622394 -9.786999,8.7395174 z m 99.471451,47.22243866 0.35656,3.63647 9.18755,-2.045869 0.5023,2.983796 -7.28018,0.5178 1.125,10.987958 -3.34295,-0.172598 c 0,0 -0.27479,-3.820851 -1.079,-6.791317 -0.80421,-2.970469 -2.43448,-6.363436 -2.43448,-6.363436 z m 18.93941,13.217281 1.96732,2.229321 -1.83245,0.01809 z m -51.92086,0.362252 c 0.90522,0.0045 1.46089,0.0739 1.46089,0.0739 0,0 4.0193,3.36799 5.47202,8.431009 1.45272,5.063027 0.73018,11.607043 0.73018,11.607043 l -7.44089,-4.632275 -13.313911,12.007535 8.022248,6.898804 c 0,0 -4.152508,0.477615 -7.379911,-1.420585 -3.227401,-1.8982 -6.547919,-7.182506 -6.547919,-7.182506 0,0 -0.461346,-3.065441 0.49661,-8.640299 1.008827,-5.870911 5.056819,-11.836405 9.661942,-14.806851 3.166026,-2.042178 6.847256,-2.345655 8.838741,-2.335773 z M 24.839797,75.106639 c 0.400233,0.0173 0.709002,0.0801 0.709002,0.0801 0,0 0.334078,0.363519 0.784965,0.837158 L 22.55725,75.900389 c 0,0 0.293254,-0.237982 1.024745,-0.601514 0.365744,-0.181764 0.857572,-0.20954 1.257802,-0.192236 z" />
    <path
       style="fill:#f3fe02;fill-opacity:1;stroke:none;stroke-width:0.264583px;stroke-linecap:butt;stroke-linejoin:miter;stroke-opacity:1"
       d="m 43.046192,69.078028 0.09536,9.098289 -4.368208,0.11556 c 0,0 -2.794957,-0.0619 -5.469331,-1.57961 -2.674371,-1.51769 -4.4591,-3.37683 -5.034404,-4.11083 -0.575308,-0.73401 -1.928231,-2.238354 -2.995774,-3.299762 -1.067541,-1.061408 -2.117836,-1.8719 -5.042571,-1.827628 -2.139629,0.03239 -3.672017,0.782497 -4.762173,1.876311 -1.090156,1.093817 -1.326102,2.045519 -1.415274,3.616039 -0.08917,1.57052 0.291727,3.62904 2.070586,5.0115 3.27032,2.11493 3.498449,2.02765 7.22173,2.11977 l -0.04094,9.80948 c 0,0 -6.102085,-0.33678 -9.167613,-2.09749 -3.065527,-1.76071 -9.48647,-5.62239 -9.107182,-15.19527 0.308598,-9.682678 7.051422,-15.760519 15.788762,-15.393757 4.027001,0.211484 8.852032,2.206993 11.303161,6.071206 2.451132,3.86421 3.998518,4.643868 5.749324,5.421124 1.750807,0.777256 5.174547,0.365088 5.174547,0.365088 z"
       id="path9983" />
    <path
       id="path24377"
       style="fill:#f3fe02;fill-opacity:1;stroke:none;stroke-width:0.264583px;stroke-linecap:butt;stroke-linejoin:miter;stroke-opacity:1"
       d="m 37.538249,9.2636302 -3.771347,39.5815628 10.694953,1.411285 2.66754,-17.347263 14.332974,14.051341 c 0,0 -2.707865,3.036535 -5.168678,11.564151 -2.116598,7.334787 -1.903759,10.215914 -1.903759,10.215914 l -8.482168,0.159163 -0.0031,9.706901 8.850106,0.564822 c 0,0 0.158771,3.849039 1.581814,8.47907 1.423045,4.630029 3.602365,8.46305 3.602365,8.46305 l -11.130071,7.685833 c -0.145711,-0.0238 -9.813628,-2.57546 -15.991786,3.44217 -7.61755,7.41963 -6.514243,16.71563 -1.092957,22.90093 5.177911,5.90763 16.056546,7.01285 23.282298,0.20825 7.154479,-6.73748 3.229777,-17.51211 3.229777,-17.51211 l 8.29872,-7.89409 c 0,0 4.127971,4.29612 8.70541,7.19388 4.57744,2.89776 13.864786,4.43487 13.864786,4.43487 l -0.438732,11.16211 -13.44104,0.29197 -0.800467,9.72705 13.769702,0.38448 -0.548288,15.16393 15.841929,-0.0543 -1.53944,-14.68179 15.40112,0.25063 0.0181,-11.51558 -16.60622,-0.11007 -0.73329,-11.32127 c 0,0 5.6798,-1.29212 8.87698,-3.06028 3.19718,-1.76818 7.4967,-5.29063 7.4967,-5.29063 l 38.42297,30.95831 13.09068,-14.63528 -42.82116,-26.850554 c 0,0 2.0388,-3.616317 3.8256,-8.482688 1.78683,-4.86637 2.24328,-10.518737 2.24328,-10.518737 l 11.49904,-0.209807 -0.93483,10.751283 8.2858,0.355018 -0.17931,-11.240143 14.04927,-0.132292 -8.75503,10.173541 8.88473,5.74797 18.43609,-21.475692 -20.80958,-20.449915 -6.79752,6.340181 10.34717,10.357509 -15.99386,-0.03928 -0.59583,-11.65407 -7.10447,0.517281 1.10484,11.093382 -11.56002,-0.09043 c 0,0 -0.63111,-6.056683 -2.46858,-11.656137 -1.83747,-5.599453 -5.55677,-10.836031 -5.55677,-10.836031 l 13.35371,-13.865302 1.47639,14.675072 11.38639,-2.282031 -2.42156,-31.619258 -32.74838,0.170016 -0.29818,10.176123 16.23312,-0.112654 -14.7438,14.455963 c 0.0971,-0.06574 -8.79424,-8.031028 -22.14077,-8.296651 -4.503446,-0.08963 -9.475327,0.956789 -13.253455,2.492872 -7.026529,2.856797 -11.400562,7.150294 -11.354861,7.170106 l -12.361002,-12.122259 9.30434,-8.179861 -7.301363,-7.291546 -9.705866,8.775176 z M 94.2645,54.424181 c 8.44666,-0.02128 14.17968,5.689254 16.95711,13.099976 3.68556,9.833838 0.83336,17.320863 -0.47646,20.609594 l -9.19324,-5.700942 -7.495666,6.563939 9.779246,7.92458 c 0,0 -4.830916,4.357802 -10.877886,3.434412 C 88.746723,99.712735 80.04236,97.693721 76.224775,84.372742 73.250792,73.9954 77.422265,66.068052 80.239001,62.193216 83.398758,57.846503 89.715032,54.435641 94.2645,54.424181 Z M 43.059876,111.13235 c 3.697496,-0.029 6.775521,3.06796 6.640938,7.70805 -0.148722,5.12749 -4.279828,7.41291 -6.64714,7.39594 -4.157184,-0.0298 -6.755781,-3.62633 -6.635255,-7.94112 0.120528,-4.31479 3.553357,-7.13866 6.641457,-7.16287 z" />
  </g>
</svg>
