<?xml version="1.0" encoding="UTF-8" standalone="no"?>
<!-- Generator: Adobe Illustrator 15.1.0, SVG Export Plug-In . SVG Version: 6.00 Build 0)  -->

<svg
   version="1.1"
   id="Ebene_1"
   x="0px"
   y="0px"
   width="332.15756"
   height="142.80299"
   viewBox="0 0 332.15756 142.80298"
   enable-background="new 0 0 841.89 595.28"
   xml:space="preserve"
   sodipodi:docname="viva-white.svg"
   inkscape:version="1.1.1 (3bf5ae0d25, 2021-09-20, custom)"
   xmlns:inkscape="http://www.inkscape.org/namespaces/inkscape"
   xmlns:sodipodi="http://sodipodi.sourceforge.net/DTD/sodipodi-0.dtd"
   xmlns="http://www.w3.org/2000/svg"
   xmlns:svg="http://www.w3.org/2000/svg"
   xmlns:rdf="http://www.w3.org/1999/02/22-rdf-syntax-ns#"
   xmlns:cc="http://creativecommons.org/ns#"
   xmlns:dc="http://purl.org/dc/elements/1.1/"><sodipodi:namedview
     id="namedview73"
     pagecolor="#ffffff"
     bordercolor="#666666"
     borderopacity="1.0"
     inkscape:pageshadow="2"
     inkscape:pageopacity="0.0"
     inkscape:pagecheckerboard="true"
     showgrid="false"
     fit-margin-top="0"
     fit-margin-left="0"
     fit-margin-right="0"
     fit-margin-bottom="0"
     inkscape:zoom="2.7546898"
     inkscape:cx="-13.250131"
     inkscape:cy="71.151388"
     inkscape:window-width="3840"
     inkscape:window-height="2033"
     inkscape:window-x="0"
     inkscape:window-y="0"
     inkscape:window-maximized="1"
     inkscape:current-layer="Ebene_1" /><metadata
     id="metadata5042"><rdf:RDF><cc:Work
         rdf:about=""><dc:format>image/svg+xml</dc:format><dc:type
           rdf:resource="http://purl.org/dc/dcmitype/StillImage" /></cc:Work></rdf:RDF></metadata><defs
     id="defs5040" /><path
     d="m 143.60556,17.082 5.319,12.08 5.186,-12.08 h 3.811 l -8.309,19.056 h -1.266 l -8.579,-19.056 z"
     id="path4902"
     style="fill:#ffffff;fill-opacity:1" /><path
     d="m 167.98356,17.082 v 18.813 h -3.636 V 17.082 Z"
     id="path4904"
     style="fill:#ffffff;fill-opacity:1" /><path
     d="m 178.24956,17.082 5.319,12.08 5.185,-12.08 h 3.812 l -8.31,19.056 h -1.266 l -8.578,-19.056 z"
     id="path4906"
     style="fill:#ffffff;fill-opacity:1" /><path
     d="m 206.23556,17.082 8.31,18.813 h -3.838 l -1.953,-4.579 h -8.363 l -1.817,4.579 h -3.812 l 7.757,-18.813 z m -4.74,11.474 h 6.074 l -3.179,-7.448 z"
     id="path4908"
     style="fill:#ffffff;fill-opacity:1" /><path
     d="m 246.37356,17.082 v 2.841 h -6.68 v 15.972 h -3.637 V 19.923 h -6.68 v -2.841 z"
     id="path4910"
     style="fill:#ffffff;fill-opacity:1" /><path
     d="m 258.45656,16.839 c 1.831,0 3.596,0.458 5.292,1.374 v 3.232 c -1.948,-1.176 -3.676,-1.764 -5.185,-1.764 -0.916,0 -1.632,0.177 -2.147,0.532 -0.517,0.355 -0.774,0.828 -0.774,1.421 0,0.709 0.479,1.365 1.44,1.966 0.27,0.18 1.307,0.682 3.111,1.508 1.544,0.727 2.657,1.535 3.34,2.424 0.682,0.889 1.023,1.958 1.023,3.206 0,1.616 -0.582,2.92 -1.744,3.912 -1.163,0.992 -2.669,1.488 -4.519,1.488 -1.203,0 -2.237,-0.132 -3.104,-0.397 -0.867,-0.265 -1.839,-0.721 -2.916,-1.367 v -3.582 c 2.011,1.67 3.905,2.505 5.684,2.505 0.889,0 1.606,-0.193 2.154,-0.579 0.548,-0.386 0.821,-0.897 0.821,-1.535 0,-0.871 -0.476,-1.58 -1.428,-2.128 -0.79,-0.431 -1.809,-0.947 -3.057,-1.549 -1.481,-0.673 -2.588,-1.459 -3.319,-2.356 -0.732,-0.898 -1.098,-1.939 -1.098,-3.125 0,-1.58 0.588,-2.839 1.764,-3.778 1.178,-0.939 2.731,-1.408 4.662,-1.408 z"
     id="path4912"
     style="fill:#ffffff;fill-opacity:1" /><path
     d="m 295.83356,17.082 v 2.841 h -8.524 v 4.942 h 8.161 v 2.842 h -8.161 v 5.346 h 8.713 v 2.842 h -12.349 V 17.082 Z"
     id="path4914"
     style="fill:#ffffff;fill-opacity:1" /><path
     d="m 302.11456,32.003 c 0.548,0 1.03,0.202 1.448,0.606 0.417,0.404 0.626,0.894 0.626,1.468 0,0.557 -0.202,1.039 -0.606,1.448 -0.403,0.408 -0.894,0.612 -1.468,0.612 -0.565,0 -1.053,-0.204 -1.461,-0.612 -0.409,-0.409 -0.613,-0.891 -0.613,-1.448 0,-0.575 0.207,-1.064 0.62,-1.468 0.413,-0.404 0.897,-0.606 1.454,-0.606 z"
     id="path4916"
     style="fill:#ffffff;fill-opacity:1" /><path
     d="m 313.89356,17.082 5.319,12.08 5.186,-12.08 h 3.811 l -8.309,19.056 h -1.267 l -8.578,-19.056 z"
     id="path4918"
     style="fill:#ffffff;fill-opacity:1" /><path
     d="m 330.08356,32.003 c 0.548,0 1.03,0.202 1.448,0.606 0.417,0.404 0.626,0.894 0.626,1.468 0,0.557 -0.202,1.039 -0.606,1.448 -0.403,0.408 -0.894,0.612 -1.468,0.612 -0.565,0 -1.053,-0.204 -1.461,-0.612 -0.409,-0.409 -0.613,-0.891 -0.613,-1.448 0,-0.575 0.207,-1.064 0.62,-1.468 0.413,-0.404 0.897,-0.606 1.454,-0.606 z"
     id="path4920"
     style="fill:#ffffff;fill-opacity:1" /><path
     d="m 157.31556,50.178 v 2.841 h -6.68 v 15.972 h -3.637 V 53.019 h -6.68 v -2.841 z"
     id="path4922"
     style="fill:#ffffff;fill-opacity:1" /><path
     d="m 170.98756,50.178 c 1.769,0 3.209,0.489 4.322,1.468 1.113,0.979 1.67,2.254 1.67,3.825 0,1.068 -0.275,2 -0.828,2.794 -0.552,0.794 -1.371,1.421 -2.457,1.878 0.602,0.323 1.135,0.764 1.602,1.32 0.467,0.557 1.047,1.495 1.738,2.815 1.148,2.28 2.002,3.852 2.559,4.713 h -4.054 c -0.278,-0.413 -0.655,-1.073 -1.132,-1.979 -1.041,-2.002 -1.805,-3.351 -2.289,-4.047 -0.484,-0.696 -0.951,-1.19 -1.4,-1.481 -0.449,-0.292 -0.965,-0.438 -1.549,-0.438 h -1.32 v 7.946 h -3.636 V 50.179 h 6.774 z m -0.822,8.027 c 0.952,0 1.699,-0.238 2.242,-0.714 0.544,-0.476 0.815,-1.126 0.815,-1.953 0,-0.862 -0.27,-1.506 -0.808,-1.933 -0.539,-0.426 -1.307,-0.64 -2.303,-0.64 h -2.264 v 5.239 h 2.318 z"
     id="path4924"
     style="fill:#ffffff;fill-opacity:1" /><path
     d="m 195.64856,50.178 8.309,18.813 h -3.838 l -1.952,-4.579 h -8.363 l -1.818,4.579 h -3.811 l 7.756,-18.813 z m -4.741,11.475 h 6.074 l -3.178,-7.448 z"
     id="path4926"
     style="fill:#ffffff;fill-opacity:1" /><path
     d="m 213.49556,50.178 11.178,13.13 v -13.13 h 3.556 v 18.813 h -3.125 l -11.245,-13.346 v 13.346 h -3.555 V 50.178 Z"
     id="path4928"
     style="fill:#ffffff;fill-opacity:1" /><path
     d="m 241.95456,49.936 c 1.831,0 3.596,0.458 5.292,1.374 v 3.232 c -1.948,-1.176 -3.676,-1.764 -5.185,-1.764 -0.916,0 -1.632,0.177 -2.147,0.532 -0.517,0.355 -0.774,0.828 -0.774,1.421 0,0.709 0.479,1.365 1.44,1.966 0.27,0.18 1.307,0.682 3.111,1.508 1.544,0.727 2.657,1.535 3.34,2.424 0.682,0.889 1.023,1.958 1.023,3.206 0,1.616 -0.582,2.92 -1.744,3.912 -1.163,0.992 -2.669,1.488 -4.519,1.488 -1.203,0 -2.237,-0.132 -3.104,-0.397 -0.867,-0.265 -1.839,-0.721 -2.916,-1.367 v -3.582 c 2.011,1.67 3.905,2.505 5.684,2.505 0.889,0 1.606,-0.193 2.154,-0.579 0.548,-0.386 0.821,-0.897 0.821,-1.535 0,-0.871 -0.476,-1.58 -1.428,-2.128 -0.79,-0.431 -1.809,-0.947 -3.057,-1.549 -1.481,-0.673 -2.588,-1.459 -3.319,-2.356 -0.732,-0.898 -1.098,-1.939 -1.098,-3.125 0,-1.58 0.588,-2.839 1.764,-3.778 1.179,-0.939 2.731,-1.408 4.662,-1.408 z"
     id="path4930"
     style="fill:#ffffff;fill-opacity:1" /><path
     d="m 150.66356,84.218 v 1.603 c -1.635,-0.961 -3.04,-1.441 -4.216,-1.441 -1.132,0 -2.076,0.344 -2.835,1.03 -0.759,0.687 -1.138,1.538 -1.138,2.552 0,0.727 0.224,1.383 0.673,1.966 0.449,0.583 1.387,1.145 2.814,1.683 1.427,0.538 2.469,0.988 3.125,1.347 0.655,0.359 1.212,0.88 1.67,1.562 0.457,0.682 0.687,1.566 0.687,2.653 0,1.446 -0.53,2.667 -1.589,3.663 -1.06,0.997 -2.353,1.495 -3.879,1.495 -1.562,0 -3.169,-0.547 -4.82,-1.643 v -1.71 c 1.822,1.338 3.402,2.006 4.74,2.006 1.113,0 2.053,-0.361 2.82,-1.084 0.767,-0.723 1.152,-1.609 1.152,-2.66 0,-0.799 -0.238,-1.52 -0.714,-2.162 -0.476,-0.642 -1.44,-1.242 -2.895,-1.8 -1.455,-0.558 -2.493,-1.008 -3.117,-1.349 -0.624,-0.341 -1.155,-0.828 -1.591,-1.46 -0.436,-0.632 -0.652,-1.447 -0.652,-2.443 0,-1.382 0.529,-2.56 1.588,-3.533 1.061,-0.973 2.335,-1.46 3.825,-1.46 1.465,0 2.914,0.395 4.352,1.185 z"
     id="path4932"
     style="fill:#ffffff;fill-opacity:1" /><path
     d="m 169.18256,83.276 v 1.212 h -8.808 v 7.528 h 8.579 v 1.225 h -8.579 v 7.636 h 9.022 v 1.212 h -10.477 V 83.276 Z"
     id="path4934"
     style="fill:#ffffff;fill-opacity:1" /><path
     d="m 178.00756,83.276 v 17.602 h 9.305 v 1.212 h -10.76 V 83.277 h 1.455 z"
     id="path4936"
     style="fill:#ffffff;fill-opacity:1" /><path
     d="m 193.65756,83.276 h 3.919 c 2.057,0 3.613,0.431 4.674,1.293 1.059,0.862 1.588,2.051 1.588,3.568 0,1.814 -0.902,3.21 -2.707,4.188 2.9,0.628 4.352,2.218 4.352,4.768 0,1.526 -0.568,2.74 -1.705,3.643 -1.135,0.902 -2.672,1.354 -4.612,1.354 h -5.508 V 83.276 Z m 1.455,1.212 v 7.501 h 2.02 c 3.421,0 5.132,-1.248 5.132,-3.744 0,-2.505 -1.729,-3.757 -5.186,-3.757 z m 0,8.726 v 7.663 h 3.892 c 1.607,0 2.828,-0.346 3.662,-1.037 0.836,-0.691 1.254,-1.616 1.254,-2.774 0,-2.567 -1.85,-3.852 -5.55,-3.852 z"
     id="path4938"
     style="fill:#ffffff;fill-opacity:1" /><path
     d="m 221.25456,84.218 v 1.603 c -1.634,-0.961 -3.039,-1.441 -4.215,-1.441 -1.131,0 -2.076,0.344 -2.835,1.03 -0.759,0.687 -1.138,1.538 -1.138,2.552 0,0.727 0.224,1.383 0.673,1.966 0.449,0.583 1.388,1.145 2.814,1.683 1.428,0.539 2.47,0.988 3.125,1.347 0.655,0.359 1.212,0.88 1.67,1.562 0.458,0.682 0.687,1.566 0.687,2.653 0,1.446 -0.529,2.667 -1.589,3.663 -1.06,0.996 -2.353,1.495 -3.879,1.495 -1.562,0 -3.169,-0.547 -4.821,-1.643 v -1.71 c 1.823,1.338 3.403,2.006 4.741,2.006 1.112,0 2.054,-0.361 2.821,-1.084 0.767,-0.723 1.151,-1.609 1.151,-2.66 0,-0.799 -0.238,-1.52 -0.714,-2.162 -0.476,-0.642 -1.44,-1.242 -2.895,-1.8 -1.455,-0.558 -2.493,-1.008 -3.117,-1.349 -0.625,-0.341 -1.154,-0.828 -1.59,-1.46 -0.437,-0.632 -0.654,-1.447 -0.654,-2.443 0,-1.382 0.53,-2.56 1.59,-3.533 1.059,-0.973 2.334,-1.46 3.824,-1.46 1.464,0 2.914,0.395 4.351,1.185 z"
     id="path4940"
     style="fill:#ffffff;fill-opacity:1" /><path
     d="m 242.99356,83.276 v 1.212 h -7.057 v 17.602 h -1.469 V 84.488 h -7.057 v -1.212 z"
     id="path4942"
     style="fill:#ffffff;fill-opacity:1" /><path
     d="m 264.90656,83.276 v 18.813 h -1.468 v -8.915 h -12.552 v 8.915 h -1.454 V 83.276 h 1.454 v 8.686 h 12.552 v -8.686 z"
     id="path4944"
     style="fill:#ffffff;fill-opacity:1" /><path
     d="m 274.83556,83.276 v 18.813 h -1.455 V 83.276 Z"
     id="path4946"
     style="fill:#ffffff;fill-opacity:1" /><path
     d="m 284.73556,83.276 v 17.602 h 9.307 v 1.212 h -10.761 V 83.277 h 1.454 z"
     id="path4948"
     style="fill:#ffffff;fill-opacity:1" /><path
     d="m 310.01756,83.276 v 1.212 h -8.229 v 7.151 h 7.42 v 1.212 h -7.42 v 9.238 h -1.455 V 83.276 Z"
     id="path4950"
     style="fill:#ffffff;fill-opacity:1" /><path
     d="m 326.86756,83.276 v 1.212 h -8.808 v 7.528 h 8.578 v 1.225 h -8.578 v 7.636 h 9.023 v 1.212 h -10.478 V 83.276 Z"
     id="path4952"
     style="fill:#ffffff;fill-opacity:1" /><path
     d="m 150.40756,125.11 7.146,-8.737 h 1.472 v 18.813 h -1.468 V 118.5 l -7.158,8.794 -7.185,-8.794 v 16.686 h -1.454 v -18.813 h 1.455 z"
     id="path4954"
     style="fill:#ffffff;fill-opacity:1" /><path
     d="m 181.35656,116.372 h 1.455 v 10.262 c 0,2.811 -0.732,4.979 -2.195,6.505 -1.463,1.526 -3.357,2.289 -5.684,2.289 -2.316,0 -4.205,-0.754 -5.669,-2.263 -1.464,-1.508 -2.195,-3.573 -2.195,-6.194 v -10.599 h 1.468 v 10.545 c 0,2.244 0.595,3.999 1.785,5.266 1.189,1.266 2.727,1.898 4.611,1.898 1.904,0 3.45,-0.64 4.641,-1.919 1.189,-1.279 1.783,-3.095 1.783,-5.447 z m -10.059,-3.528 c 0,-0.332 0.119,-0.62 0.356,-0.862 0.238,-0.242 0.523,-0.363 0.855,-0.363 0.324,0 0.606,0.121 0.849,0.363 0.243,0.243 0.364,0.53 0.364,0.862 0,0.323 -0.121,0.606 -0.364,0.848 -0.242,0.243 -0.524,0.364 -0.849,0.364 -0.332,0 -0.617,-0.121 -0.855,-0.364 -0.237,-0.242 -0.356,-0.525 -0.356,-0.848 z m 4.876,0 c 0,-0.332 0.121,-0.62 0.363,-0.862 0.242,-0.242 0.525,-0.363 0.848,-0.363 0.332,0 0.617,0.121 0.855,0.363 0.238,0.243 0.357,0.53 0.357,0.862 0,0.323 -0.119,0.606 -0.357,0.848 -0.238,0.243 -0.523,0.364 -0.855,0.364 -0.322,0 -0.605,-0.121 -0.848,-0.364 -0.242,-0.242 -0.363,-0.525 -0.363,-0.848 z"
     id="path4956"
     style="fill:#ffffff;fill-opacity:1" /><path
     d="m 207.80956,116.372 v 18.813 h -1.197 l -14.304,-16.443 v 16.443 h -1.454 v -18.813 h 1.232 l 14.268,16.443 v -16.443 z"
     id="path4958"
     style="fill:#ffffff;fill-opacity:1" /><path
     d="m 231.94456,117.705 v 1.589 c -2.28,-1.212 -4.516,-1.818 -6.706,-1.818 -2.335,0 -4.287,0.795 -5.858,2.384 -1.571,1.589 -2.356,3.574 -2.356,5.953 0,2.406 0.789,4.386 2.37,5.938 1.58,1.554 3.596,2.33 6.046,2.33 2.048,0 4.278,-0.642 6.693,-1.926 v 1.509 c -2.227,1.176 -4.448,1.764 -6.666,1.764 -2.864,0 -5.25,-0.918 -7.158,-2.754 -1.907,-1.836 -2.861,-4.123 -2.861,-6.861 0,-2.756 0.974,-5.059 2.923,-6.909 1.947,-1.85 4.269,-2.774 6.962,-2.774 2.118,0 4.322,0.525 6.611,1.575 z"
     id="path4960"
     style="fill:#ffffff;fill-opacity:1" /><path
     d="m 254.55856,116.372 v 18.813 h -1.468 v -8.915 h -12.552 v 8.915 h -1.454 v -18.813 h 1.454 v 8.687 h 12.552 v -8.687 z"
     id="path4962"
     style="fill:#ffffff;fill-opacity:1" /><path
     d="m 273.34756,116.372 v 1.212 h -8.808 v 7.528 h 8.578 v 1.226 h -8.578 v 7.636 h 9.023 v 1.212 h -10.478 v -18.813 h 10.263 z"
     id="path4964"
     style="fill:#ffffff;fill-opacity:1" /><path
     d="m 297.64556,116.372 v 18.813 h -1.197 l -14.304,-16.443 v 16.443 h -1.455 v -18.813 h 1.232 l 14.269,16.443 v -16.443 z"
     id="path4966"
     style="fill:#ffffff;fill-opacity:1" /><polygon
     points="455.116,276.716 453.106,279.168 455.111,276.751 "
     id="polygon4976"
     style="fill:#ffffff;fill-opacity:1"
     transform="translate(-431.38144,-178.281)" /><rect
     x="17.960274"
     y="102.9269"
     transform="rotate(-2.4815892)"
     width="0.83503157"
     height="0.0030001136"
     id="rect4978"
     style="fill:#ffffff;fill-opacity:1;stroke-width:1.00004" /><path
     d="m 21.724564,100.887 c -2.015,-20.155 1.842,-35.867 8.681,-48.104 L 38.119564,0 c 0,0 -53.317,45.747 -15.931,101.763 0.224,-0.221 0.448,-0.432 0.672,-0.649 -0.383,-0.079 -0.749,-0.143 -1.136,-0.227 z"
     id="path4980"
     style="fill:#ffffff;fill-opacity:1" /><path
     d="m 57.094564,25.528 c -7.94,-14.838 -18.418,-25.435 -18.418,-25.435 l -7.89,52.016 c 6.839,-11.915 16.516,-20.477 26.308,-26.581 z"
     id="path4982"
     style="fill:#ffffff;fill-opacity:1" /><path
     d="m 23.218564,102.013 -0.001,0.007 2.855,-0.109 c 0.021,-0.008 0.042,-0.017 0.063,-0.025 z"
     id="path4984"
     style="fill:#ffffff;fill-opacity:1" /><path
     d="m 23.761564,98.433 41.469,-49.994 c -0.027,-0.174 -0.055,-0.348 -0.083,-0.521 l -41.381,50.48 z"
     id="path4986"
     style="fill:#ffffff;fill-opacity:1" /><path
     d="m 22.188564,101.764 c -0.106,0.104 -0.213,0.202 -0.318,0.307 l 0.508,-0.022 c -0.064,-0.095 -0.126,-0.189 -0.19,-0.285 z"
     id="path4988"
     style="fill:#ffffff;fill-opacity:1" /><rect
     x="23.270573"
     y="101.206"
     width="0.0099999998"
     height="0.81300002"
     id="rect4990"
     style="fill:#ffffff;fill-opacity:1" /><path
     d="m 26.609564,101.866 c -0.092,-0.017 -0.188,-0.038 -0.281,-0.056 -0.064,0.025 -0.129,0.051 -0.192,0.076 z"
     id="path4992"
     style="fill:#ffffff;fill-opacity:1" /><path
     d="m 71.103564,99.936 50.721996,-2.2 c 0,0 -12.442,-9.701 -30.513996,-14.604 -4.457,7.147 -10.942,13.115 -20.208,16.804 z"
     id="path4994"
     style="fill:#ffffff;fill-opacity:1" /><path
     d="m 23.212564,102.013 0.117,-0.804 c -0.157,-0.032 -0.311,-0.061 -0.469,-0.094 -0.224,0.217 -0.448,0.428 -0.672,0.649 0.063,0.095 0.126,0.19 0.189,0.285 z"
     id="path4996"
     style="fill:#ffffff;fill-opacity:1" /><path
     d="m 23.218564,102.013 2.918,-0.126 c 0.063,-0.025 0.128,-0.051 0.192,-0.076 -0.979,-0.182 -1.986,-0.393 -2.989,-0.599 z"
     id="path4998"
     style="fill:#ffffff;fill-opacity:1" /><polygon
     points="454.593,280.301 454.439,281.349 454.599,280.301 "
     id="polygon5000"
     style="fill:#ffffff;fill-opacity:1"
     transform="translate(-431.38144,-178.281)" /><path
     d="m 70.389564,100.223 c -10.62,4.03 -24.81,5.116 -43.657,1.663 l -0.659,0.025 c -0.985,0.391 -1.985,0.777 -3.015,1.156 -0.234,-0.339 -0.449,-0.677 -0.678,-1.016 l -0.51,0.02 c 45.518,73.964 99.970996,-3.808 99.970996,-3.808 z"
     id="path5002"
     style="fill:#ffffff;fill-opacity:1" /><path
     d="m 22.380564,102.052 c 0.229,0.339 0.443,0.676 0.678,1.016 l 0.153,-1.047 z"
     id="path5004"
     style="fill:#ffffff;fill-opacity:1" /><path
     d="m 23.057564,103.068 c 1.029,-0.379 2.029,-0.766 3.015,-1.156 l -2.855,0.109 z"
     id="path5006"
     style="fill:#ffffff;fill-opacity:1" /><path
     d="m 95.331564,11.094 c 0,0 -19.321,2.641 -38.237,14.433 3.628,6.78 6.726,14.444 8.053,22.39 z"
     id="path5008"
     style="fill:#ffffff;fill-opacity:1" /><path
     d="m 23.765564,98.397 7.021,-46.288 c -0.128,0.224 -0.254,0.449 -0.381,0.675 l -6.671,45.651 z"
     id="path5010"
     style="fill:#ffffff;fill-opacity:1" /><path
     d="m 21.724564,100.887 2.01,-2.452 6.671,-45.651 c -6.839,12.237 -10.695,27.949 -8.681,48.103 z"
     id="path5012"
     style="fill:#ffffff;fill-opacity:1" /><path
     d="m 65.146564,47.917 c -1.327,-7.945 -4.425,-15.61 -8.053,-22.39 -9.792,6.104 -19.469,14.666 -26.308,26.582 l -7.021,46.288 z"
     id="path5014"
     style="fill:#ffffff;fill-opacity:1" /><path
     d="m 56.190564,82.115 c 12.696,-3.007 24.822,-1.779 35.121,1.016 16.997996,-27.259 4.535,-71.605 4.535,-71.605 l -30.617,36.913 c 1.768,11.265 -0.072,23.063 -9.039,33.676 z"
     id="path5016"
     style="fill:#ffffff;fill-opacity:1" /><path
     d="m 23.422564,100.573 c 0.006,-0.005 0.011,-0.011 0.017,-0.016 l 0.322,-2.125 -0.031,0.038 z"
     id="path5018"
     style="fill:#ffffff;fill-opacity:1" /><path
     d="m 26.731564,101.886 43.657,-1.663 c 0.243,-0.092 0.476,-0.192 0.715,-0.288 l -44.494,1.93 c 0.042,0.009 0.081,0.014 0.122,0.021 z"
     id="path5020"
     style="fill:#ffffff;fill-opacity:1" /><path
     d="m 23.729564,98.47 -2.005,2.417 c 0.387,0.083 0.753,0.148 1.136,0.228 0.188,-0.181 0.374,-0.363 0.562,-0.542 z"
     id="path5022"
     style="fill:#ffffff;fill-opacity:1" /><path
     d="m 23.438564,100.558 c 10.814,-10.289 21.986,-15.893 32.752,-18.442 8.967,-10.613 10.807,-22.412 9.039,-33.677 l -41.469,49.994 z"
     id="path5024"
     style="fill:#ffffff;fill-opacity:1" /><path
     d="m 56.190564,82.115 c -6.181,7.316 -15.752,14.069 -29.862,19.695 0.093,0.018 0.189,0.039 0.281,0.056 l 44.494,-1.93 c 9.266,-3.689 15.751,-9.657 20.208,-16.804 -10.298,-2.795 -22.424,-4.024 -35.121,-1.017 z"
     id="path5026"
     style="fill:#ffffff;fill-opacity:1" /><path
     d="m 23.438564,100.558 c -0.006,0.005 -0.011,0.01 -0.017,0.016 l -0.093,0.636 c 0.004,0 0.007,0.001 0.01,0.002 z"
     id="path5028"
     style="fill:#ffffff;fill-opacity:1" /><path
     d="m 22.860564,101.115 c 0.158,0.033 0.312,0.062 0.469,0.094 l 0.093,-0.636 c -0.188,0.179 -0.374,0.361 -0.562,0.542 z"
     id="path5030"
     style="fill:#ffffff;fill-opacity:1" /><path
     d="m 26.328564,101.81 c 14.11,-5.626 23.682,-12.378 29.862,-19.695 -10.766,2.55 -21.938,8.154 -32.752,18.442 l -0.1,0.653 c 1.004,0.208 2.011,0.419 2.99,0.6 z"
     id="path5032"
     style="fill:#ffffff;fill-opacity:1" /><path
     d="m 70.389564,100.223 -43.657,1.663 c 18.847,3.453 33.036,2.368 43.657,-1.663 z"
     id="path5034"
     style="fill:#ffffff;fill-opacity:1" /><path
     d="m 7.5375644,3.641 c 0,0 -17.7210004,33.956 5.3969996,81.835 23.116,47.877 40.031,46.042 51.501,49.557 11.47,3.514 5.365,7.77 5.365,7.77 0,0 -48.225,-2.611 -63.4889996,-62.872 -14.884,-58.774 1.226,-76.29 1.226,-76.29 z"
     id="path5036"
     style="fill:#ffffff;fill-opacity:1" /></svg>
