<?xml version="1.0" encoding="UTF-8" standalone="no"?>
<!-- Generator: Adobe Illustrator 15.1.0, SVG Export Plug-In . SVG Version: 6.00 Build 0)  -->
<svg xmlns:dc="http://purl.org/dc/elements/1.1/" xmlns:cc="http://creativecommons.org/ns#" xmlns:rdf="http://www.w3.org/1999/02/22-rdf-syntax-ns#" xmlns:svg="http://www.w3.org/2000/svg" xmlns="http://www.w3.org/2000/svg" xmlns:sodipodi="http://sodipodi.sourceforge.net/DTD/sodipodi-0.dtd" xmlns:inkscape="http://www.inkscape.org/namespaces/inkscape" version="1.1" id="Ebene_1" x="0px" y="0px" width="693" height="143" viewBox="0 0 692.99999 142.99999" enable-background="new 0 0 841.89 595.28" xml:space="preserve" inkscape:version="0.91 r13725" sodipodi:docname="viva.svg"><metadata id="metadata5042"><rdf:RDF><cc:Work rdf:about=""><dc:format>image/svg+xml</dc:format><dc:type rdf:resource="http://purl.org/dc/dcmitype/StillImage"/><dc:title/></cc:Work></rdf:RDF></metadata><defs id="defs5040"/><sodipodi:namedview pagecolor="#ffffff" bordercolor="#666666" borderopacity="1" objecttolerance="10" gridtolerance="10" guidetolerance="10" inkscape:pageopacity="0" inkscape:pageshadow="2" inkscape:window-width="1362" inkscape:window-height="729" id="namedview5038" showgrid="false" inkscape:zoom="1.8008331" inkscape:cx="368.21786" inkscape:cy="34.560924" inkscape:window-x="0" inkscape:window-y="18" inkscape:window-maximized="0" inkscape:current-layer="Ebene_1"/><g id="g4884" transform="translate(-71.520601,-178.084)"><path d="m 344.125,194.15625 -34.1582,0.24023 -28.14649,46.28516 -16.26172,-45.97266 -36.33203,0.25586 42.07422,118.94336 72.82422,-119.75195 z" id="polygon4886" style="fill:#93d3ea;fill-opacity:1" inkscape:connector-curvature="0"/><path d="m 368.80469,194.15625 -72.82422,119.75195 33.27539,-0.23437 27.41211,-45.07617 15.83789,44.77148 38.37305,-0.26953 -42.07422,-118.94336 z" id="polygon4890" style="fill:#84c7af;fill-opacity:1" inkscape:connector-curvature="0"/><polygon points="199.214,313.1 238.458,313.908 205.658,194.156 " id="polygon4894" style="fill:#c188bb"/><path d="m 180.0332,190.25977 -36.17968,11.73828 -0.86133,44.76367 -37.92383,-32.18164 -34.328126,11.13672 106.865236,90.68554 2.42773,-126.14257 z" id="polygon4896" style="fill:#ef7ea3;fill-opacity:1" inkscape:connector-curvature="0"/></g><g id="g4900" transform="translate(-71.520601,-178.084)"><path d="m 574.987,195.363 5.319,12.08 5.186,-12.08 3.811,0 -8.309,19.056 -1.266,0 -8.579,-19.056 3.838,0 z" id="path4902" inkscape:connector-curvature="0" style="fill:#ef7ea3"/><path d="m 599.365,195.363 0,18.813 -3.636,0 0,-18.813 3.636,0 z" id="path4904" inkscape:connector-curvature="0" style="fill:#ef7ea3"/><path d="m 609.631,195.363 5.319,12.08 5.185,-12.08 3.812,0 -8.31,19.056 -1.266,0 -8.578,-19.056 3.838,0 z" id="path4906" inkscape:connector-curvature="0" style="fill:#ef7ea3"/><path d="m 637.617,195.363 8.31,18.813 -3.838,0 -1.953,-4.579 -8.363,0 -1.817,4.579 -3.812,0 7.757,-18.813 3.716,0 z m -4.74,11.474 6.074,0 -3.179,-7.448 -2.895,7.448 z" id="path4908" inkscape:connector-curvature="0" style="fill:#ef7ea3"/><path d="m 677.755,195.363 0,2.841 -6.68,0 0,15.972 -3.637,0 0,-15.972 -6.68,0 0,-2.841 16.997,0 z" id="path4910" inkscape:connector-curvature="0" style="fill:#ef7ea3"/><path d="m 689.838,195.12 c 1.831,0 3.596,0.458 5.292,1.374 l 0,3.232 c -1.948,-1.176 -3.676,-1.764 -5.185,-1.764 -0.916,0 -1.632,0.177 -2.147,0.532 -0.517,0.355 -0.774,0.828 -0.774,1.421 0,0.709 0.479,1.365 1.44,1.966 0.27,0.18 1.307,0.682 3.111,1.508 1.544,0.727 2.657,1.535 3.34,2.424 0.682,0.889 1.023,1.958 1.023,3.206 0,1.616 -0.582,2.92 -1.744,3.912 -1.163,0.992 -2.669,1.488 -4.519,1.488 -1.203,0 -2.237,-0.132 -3.104,-0.397 -0.867,-0.265 -1.839,-0.721 -2.916,-1.367 l 0,-3.582 c 2.011,1.67 3.905,2.505 5.684,2.505 0.889,0 1.606,-0.193 2.154,-0.579 0.548,-0.386 0.821,-0.897 0.821,-1.535 0,-0.871 -0.476,-1.58 -1.428,-2.128 -0.79,-0.431 -1.809,-0.947 -3.057,-1.549 -1.481,-0.673 -2.588,-1.459 -3.319,-2.356 -0.732,-0.898 -1.098,-1.939 -1.098,-3.125 0,-1.58 0.588,-2.839 1.764,-3.778 1.178,-0.939 2.731,-1.408 4.662,-1.408 z" id="path4912" inkscape:connector-curvature="0" style="fill:#ef7ea3"/><path d="m 727.215,195.363 0,2.841 -8.524,0 0,4.942 8.161,0 0,2.842 -8.161,0 0,5.346 8.713,0 0,2.842 -12.349,0 0,-18.813 12.16,0 z" id="path4914" inkscape:connector-curvature="0" style="fill:#ef7ea3"/><path d="m 733.496,210.284 c 0.548,0 1.03,0.202 1.448,0.606 0.417,0.404 0.626,0.894 0.626,1.468 0,0.557 -0.202,1.039 -0.606,1.448 -0.403,0.408 -0.894,0.612 -1.468,0.612 -0.565,0 -1.053,-0.204 -1.461,-0.612 -0.409,-0.409 -0.613,-0.891 -0.613,-1.448 0,-0.575 0.207,-1.064 0.62,-1.468 0.413,-0.404 0.897,-0.606 1.454,-0.606 z" id="path4916" inkscape:connector-curvature="0" style="fill:#ef7ea3"/><path d="m 745.275,195.363 5.319,12.08 5.186,-12.08 3.811,0 -8.309,19.056 -1.267,0 -8.578,-19.056 3.838,0 z" id="path4918" inkscape:connector-curvature="0" style="fill:#ef7ea3"/><path d="m 761.465,210.284 c 0.548,0 1.03,0.202 1.448,0.606 0.417,0.404 0.626,0.894 0.626,1.468 0,0.557 -0.202,1.039 -0.606,1.448 -0.403,0.408 -0.894,0.612 -1.468,0.612 -0.565,0 -1.053,-0.204 -1.461,-0.612 -0.409,-0.409 -0.613,-0.891 -0.613,-1.448 0,-0.575 0.207,-1.064 0.62,-1.468 0.413,-0.404 0.897,-0.606 1.454,-0.606 z" id="path4920" inkscape:connector-curvature="0" style="fill:#ef7ea3"/><path d="m 588.697,228.459 0,2.841 -6.68,0 0,15.972 -3.637,0 0,-15.972 -6.68,0 0,-2.841 16.997,0 z" id="path4922" inkscape:connector-curvature="0" style="fill:#c188bb"/><path d="m 602.369,228.459 c 1.769,0 3.209,0.489 4.322,1.468 1.113,0.979 1.67,2.254 1.67,3.825 0,1.068 -0.275,2 -0.828,2.794 -0.552,0.794 -1.371,1.421 -2.457,1.878 0.602,0.323 1.135,0.764 1.602,1.32 0.467,0.557 1.047,1.495 1.738,2.815 1.148,2.28 2.002,3.852 2.559,4.713 l -4.054,0 c -0.278,-0.413 -0.655,-1.073 -1.132,-1.979 -1.041,-2.002 -1.805,-3.351 -2.289,-4.047 -0.484,-0.696 -0.951,-1.19 -1.4,-1.481 -0.449,-0.292 -0.965,-0.438 -1.549,-0.438 l -1.32,0 0,7.946 -3.636,0 0,-18.813 6.774,0 z m -0.822,8.027 c 0.952,0 1.699,-0.238 2.242,-0.714 0.544,-0.476 0.815,-1.126 0.815,-1.953 0,-0.862 -0.27,-1.506 -0.808,-1.933 -0.539,-0.426 -1.307,-0.64 -2.303,-0.64 l -2.264,0 0,5.239 2.318,0 z" id="path4924" inkscape:connector-curvature="0" style="fill:#c188bb"/><path d="m 627.03,228.459 8.309,18.813 -3.838,0 -1.952,-4.579 -8.363,0 -1.818,4.579 -3.811,0 7.756,-18.813 3.717,0 z m -4.741,11.475 6.074,0 -3.178,-7.448 -2.896,7.448 z" id="path4926" inkscape:connector-curvature="0" style="fill:#c188bb"/><path d="m 644.877,228.459 11.178,13.13 0,-13.13 3.556,0 0,18.813 -3.125,0 -11.245,-13.346 0,13.346 -3.555,0 0,-18.813 3.191,0 z" id="path4928" inkscape:connector-curvature="0" style="fill:#c188bb"/><path d="m 673.336,228.217 c 1.831,0 3.596,0.458 5.292,1.374 l 0,3.232 c -1.948,-1.176 -3.676,-1.764 -5.185,-1.764 -0.916,0 -1.632,0.177 -2.147,0.532 -0.517,0.355 -0.774,0.828 -0.774,1.421 0,0.709 0.479,1.365 1.44,1.966 0.27,0.18 1.307,0.682 3.111,1.508 1.544,0.727 2.657,1.535 3.34,2.424 0.682,0.889 1.023,1.958 1.023,3.206 0,1.616 -0.582,2.92 -1.744,3.912 -1.163,0.992 -2.669,1.488 -4.519,1.488 -1.203,0 -2.237,-0.132 -3.104,-0.397 -0.867,-0.265 -1.839,-0.721 -2.916,-1.367 l 0,-3.582 c 2.011,1.67 3.905,2.505 5.684,2.505 0.889,0 1.606,-0.193 2.154,-0.579 0.548,-0.386 0.821,-0.897 0.821,-1.535 0,-0.871 -0.476,-1.58 -1.428,-2.128 -0.79,-0.431 -1.809,-0.947 -3.057,-1.549 -1.481,-0.673 -2.588,-1.459 -3.319,-2.356 -0.732,-0.898 -1.098,-1.939 -1.098,-3.125 0,-1.58 0.588,-2.839 1.764,-3.778 1.179,-0.939 2.731,-1.408 4.662,-1.408 z" id="path4930" inkscape:connector-curvature="0" style="fill:#c188bb"/><path d="m 582.045,262.499 0,1.603 c -1.635,-0.961 -3.04,-1.441 -4.216,-1.441 -1.132,0 -2.076,0.344 -2.835,1.03 -0.759,0.687 -1.138,1.538 -1.138,2.552 0,0.727 0.224,1.383 0.673,1.966 0.449,0.583 1.387,1.145 2.814,1.683 1.427,0.538 2.469,0.988 3.125,1.347 0.655,0.359 1.212,0.88 1.67,1.562 0.457,0.682 0.687,1.566 0.687,2.653 0,1.446 -0.53,2.667 -1.589,3.663 -1.06,0.997 -2.353,1.495 -3.879,1.495 -1.562,0 -3.169,-0.547 -4.82,-1.643 l 0,-1.71 c 1.822,1.338 3.402,2.006 4.74,2.006 1.113,0 2.053,-0.361 2.82,-1.084 0.767,-0.723 1.152,-1.609 1.152,-2.66 0,-0.799 -0.238,-1.52 -0.714,-2.162 -0.476,-0.642 -1.44,-1.242 -2.895,-1.8 -1.455,-0.558 -2.493,-1.008 -3.117,-1.349 -0.624,-0.341 -1.155,-0.828 -1.591,-1.46 -0.436,-0.632 -0.652,-1.447 -0.652,-2.443 0,-1.382 0.529,-2.56 1.588,-3.533 1.061,-0.973 2.335,-1.46 3.825,-1.46 1.465,0 2.914,0.395 4.352,1.185 z" id="path4932" inkscape:connector-curvature="0" style="fill:#93d3ea"/><path d="m 600.564,261.557 0,1.212 -8.808,0 0,7.528 8.579,0 0,1.225 -8.579,0 0,7.636 9.022,0 0,1.212 -10.477,0 0,-18.813 10.263,0 z" id="path4934" inkscape:connector-curvature="0" style="fill:#93d3ea"/><path d="m 609.389,261.557 0,17.602 9.305,0 0,1.212 -10.76,0 0,-18.813 1.455,0 z" id="path4936" inkscape:connector-curvature="0" style="fill:#93d3ea"/><path d="m 625.039,261.557 3.919,0 c 2.057,0 3.613,0.431 4.674,1.293 1.059,0.862 1.588,2.051 1.588,3.568 0,1.814 -0.902,3.21 -2.707,4.188 2.9,0.628 4.352,2.218 4.352,4.768 0,1.526 -0.568,2.74 -1.705,3.643 -1.135,0.902 -2.672,1.354 -4.612,1.354 l -5.508,0 0,-18.814 z m 1.455,1.212 0,7.501 2.02,0 c 3.421,0 5.132,-1.248 5.132,-3.744 0,-2.505 -1.729,-3.757 -5.186,-3.757 l -1.966,0 z m 0,8.726 0,7.663 3.892,0 c 1.607,0 2.828,-0.346 3.662,-1.037 0.836,-0.691 1.254,-1.616 1.254,-2.774 0,-2.567 -1.85,-3.852 -5.55,-3.852 l -3.258,0 z" id="path4938" inkscape:connector-curvature="0" style="fill:#93d3ea"/><path d="m 652.636,262.499 0,1.603 c -1.634,-0.961 -3.039,-1.441 -4.215,-1.441 -1.131,0 -2.076,0.344 -2.835,1.03 -0.759,0.687 -1.138,1.538 -1.138,2.552 0,0.727 0.224,1.383 0.673,1.966 0.449,0.583 1.388,1.145 2.814,1.683 1.428,0.539 2.47,0.988 3.125,1.347 0.655,0.359 1.212,0.88 1.67,1.562 0.458,0.682 0.687,1.566 0.687,2.653 0,1.446 -0.529,2.667 -1.589,3.663 -1.06,0.996 -2.353,1.495 -3.879,1.495 -1.562,0 -3.169,-0.547 -4.821,-1.643 l 0,-1.71 c 1.823,1.338 3.403,2.006 4.741,2.006 1.112,0 2.054,-0.361 2.821,-1.084 0.767,-0.723 1.151,-1.609 1.151,-2.66 0,-0.799 -0.238,-1.52 -0.714,-2.162 -0.476,-0.642 -1.44,-1.242 -2.895,-1.8 -1.455,-0.558 -2.493,-1.008 -3.117,-1.349 -0.625,-0.341 -1.154,-0.828 -1.59,-1.46 -0.437,-0.632 -0.654,-1.447 -0.654,-2.443 0,-1.382 0.53,-2.56 1.59,-3.533 1.059,-0.973 2.334,-1.46 3.824,-1.46 1.464,0 2.914,0.395 4.351,1.185 z" id="path4940" inkscape:connector-curvature="0" style="fill:#93d3ea"/><path d="m 674.375,261.557 0,1.212 -7.057,0 0,17.602 -1.469,0 0,-17.602 -7.057,0 0,-1.212 15.583,0 z" id="path4942" inkscape:connector-curvature="0" style="fill:#93d3ea"/><path d="m 696.288,261.557 0,18.813 -1.468,0 0,-8.915 -12.552,0 0,8.915 -1.454,0 0,-18.813 1.454,0 0,8.686 12.552,0 0,-8.686 1.468,0 z" id="path4944" inkscape:connector-curvature="0" style="fill:#93d3ea"/><path d="m 706.217,261.557 0,18.813 -1.455,0 0,-18.813 1.455,0 z" id="path4946" inkscape:connector-curvature="0" style="fill:#93d3ea"/><path d="m 716.117,261.557 0,17.602 9.307,0 0,1.212 -10.761,0 0,-18.813 1.454,0 z" id="path4948" inkscape:connector-curvature="0" style="fill:#93d3ea"/><path d="m 741.399,261.557 0,1.212 -8.229,0 0,7.151 7.42,0 0,1.212 -7.42,0 0,9.238 -1.455,0 0,-18.813 9.684,0 z" id="path4950" inkscape:connector-curvature="0" style="fill:#93d3ea"/><path d="m 758.249,261.557 0,1.212 -8.808,0 0,7.528 8.578,0 0,1.225 -8.578,0 0,7.636 9.023,0 0,1.212 -10.478,0 0,-18.813 10.263,0 z" id="path4952" inkscape:connector-curvature="0" style="fill:#93d3ea"/><path d="m 581.789,303.391 7.146,-8.737 1.472,0 0,18.813 -1.468,0 0,-16.686 -7.158,8.794 -7.185,-8.794 0,16.686 -1.454,0 0,-18.813 1.455,0 7.192,8.737 z" id="path4954" inkscape:connector-curvature="0" style="fill:#84c7af"/><path d="m 612.738,294.653 1.455,0 0,10.262 c 0,2.811 -0.732,4.979 -2.195,6.505 -1.463,1.526 -3.357,2.289 -5.684,2.289 -2.316,0 -4.205,-0.754 -5.669,-2.263 -1.464,-1.508 -2.195,-3.573 -2.195,-6.194 l 0,-10.599 1.468,0 0,10.545 c 0,2.244 0.595,3.999 1.785,5.266 1.189,1.266 2.727,1.898 4.611,1.898 1.904,0 3.45,-0.64 4.641,-1.919 1.189,-1.279 1.783,-3.095 1.783,-5.447 l 0,-10.343 z m -10.059,-3.528 c 0,-0.332 0.119,-0.62 0.356,-0.862 0.238,-0.242 0.523,-0.363 0.855,-0.363 0.324,0 0.606,0.121 0.849,0.363 0.243,0.243 0.364,0.53 0.364,0.862 0,0.323 -0.121,0.606 -0.364,0.848 -0.242,0.243 -0.524,0.364 -0.849,0.364 -0.332,0 -0.617,-0.121 -0.855,-0.364 -0.237,-0.242 -0.356,-0.525 -0.356,-0.848 z m 4.876,0 c 0,-0.332 0.121,-0.62 0.363,-0.862 0.242,-0.242 0.525,-0.363 0.848,-0.363 0.332,0 0.617,0.121 0.855,0.363 0.238,0.243 0.357,0.53 0.357,0.862 0,0.323 -0.119,0.606 -0.357,0.848 -0.238,0.243 -0.523,0.364 -0.855,0.364 -0.322,0 -0.605,-0.121 -0.848,-0.364 -0.242,-0.242 -0.363,-0.525 -0.363,-0.848 z" id="path4956" inkscape:connector-curvature="0" style="fill:#84c7af"/><path d="m 639.191,294.653 0,18.813 -1.197,0 -14.304,-16.443 0,16.443 -1.454,0 0,-18.813 1.232,0 14.268,16.443 0,-16.443 1.455,0 z" id="path4958" inkscape:connector-curvature="0" style="fill:#84c7af"/><path d="m 663.326,295.986 0,1.589 c -2.28,-1.212 -4.516,-1.818 -6.706,-1.818 -2.335,0 -4.287,0.795 -5.858,2.384 -1.571,1.589 -2.356,3.574 -2.356,5.953 0,2.406 0.789,4.386 2.37,5.938 1.58,1.554 3.596,2.33 6.046,2.33 2.048,0 4.278,-0.642 6.693,-1.926 l 0,1.509 c -2.227,1.176 -4.448,1.764 -6.666,1.764 -2.864,0 -5.25,-0.918 -7.158,-2.754 -1.907,-1.836 -2.861,-4.123 -2.861,-6.861 0,-2.756 0.974,-5.059 2.923,-6.909 1.947,-1.85 4.269,-2.774 6.962,-2.774 2.118,0 4.322,0.525 6.611,1.575 z" id="path4960" inkscape:connector-curvature="0" style="fill:#84c7af"/><path d="m 685.94,294.653 0,18.813 -1.468,0 0,-8.915 -12.552,0 0,8.915 -1.454,0 0,-18.813 1.454,0 0,8.687 12.552,0 0,-8.687 1.468,0 z" id="path4962" inkscape:connector-curvature="0" style="fill:#84c7af"/><path d="m 704.729,294.653 0,1.212 -8.808,0 0,7.528 8.578,0 0,1.226 -8.578,0 0,7.636 9.023,0 0,1.212 -10.478,0 0,-18.813 10.263,0 z" id="path4964" inkscape:connector-curvature="0" style="fill:#84c7af"/><path d="m 729.027,294.653 0,18.813 -1.197,0 -14.304,-16.443 0,16.443 -1.455,0 0,-18.813 1.232,0 14.269,16.443 0,-16.443 1.455,0 z" id="path4966" inkscape:connector-curvature="0" style="fill:#84c7af"/></g><g id="g4968" transform="translate(-71.520601,-178.084)"><g id="g4970"><g id="g4972"><g id="g4974"><polygon points="455.111,276.751 455.116,276.716 453.106,279.168 " id="polygon4976" style="fill:#84c7af"/><rect x="453.76001" y="280.31201" transform="matrix(0.9991,-0.0433,0.0433,0.9991,-11.7077,19.9218)" width="0.83499998" height="0.003" id="rect4978" style="fill:#84c7af"/><path d="m 453.106,279.168 c -2.015,-20.155 1.842,-35.867 8.681,-48.104 l 7.714,-52.783 c 0,0 -53.317,45.747 -15.931,101.763 0.224,-0.221 0.448,-0.432 0.672,-0.649 -0.383,-0.079 -0.749,-0.143 -1.136,-0.227 z" id="path4980" inkscape:connector-curvature="0" style="fill:#84c7af"/><path d="m 488.476,203.809 c -7.94,-14.838 -18.418,-25.435 -18.418,-25.435 l -7.89,52.016 c 6.839,-11.915 16.516,-20.477 26.308,-26.581 z" id="path4982" inkscape:connector-curvature="0" style="fill:#84c7af"/><path d="m 454.6,280.294 -0.001,0.007 2.855,-0.109 c 0.021,-0.008 0.042,-0.017 0.063,-0.025 l -2.917,0.127 z" id="path4984" inkscape:connector-curvature="0" style="fill:#84c7af"/><path d="m 455.143,276.714 41.469,-49.994 c -0.027,-0.174 -0.055,-0.348 -0.083,-0.521 l -41.381,50.48 -0.005,0.035 z" id="path4986" inkscape:connector-curvature="0" style="fill:#84c7af"/><path d="m 453.57,280.045 c -0.106,0.104 -0.213,0.202 -0.318,0.307 l 0.508,-0.022 c -0.064,-0.095 -0.126,-0.189 -0.19,-0.285 z" id="path4988" inkscape:connector-curvature="0" style="fill:#ef7ea3"/><rect x="454.65201" y="279.487" width="0.0099999998" height="0.81300002" id="rect4990" style="fill:#ef7ea3"/><path d="m 457.991,280.147 c -0.092,-0.017 -0.188,-0.038 -0.281,-0.056 -0.064,0.025 -0.129,0.051 -0.192,0.076 l 0.473,-0.02 z" id="path4992" inkscape:connector-curvature="0" style="fill:#ef7ea3"/><path d="m 502.485,278.217 50.722,-2.2 c 0,0 -12.442,-9.701 -30.514,-14.604 -4.457,7.147 -10.942,13.115 -20.208,16.804 z" id="path4994" inkscape:connector-curvature="0" style="fill:#ef7ea3"/><path d="m 454.594,280.294 0.117,-0.804 c -0.157,-0.032 -0.311,-0.061 -0.469,-0.094 -0.224,0.217 -0.448,0.428 -0.672,0.649 0.063,0.095 0.126,0.19 0.189,0.285 l 0.835,-0.036 z" id="path4996" inkscape:connector-curvature="0" style="fill:#906a7f"/><path d="m 454.6,280.294 2.918,-0.126 c 0.063,-0.025 0.128,-0.051 0.192,-0.076 -0.979,-0.182 -1.986,-0.393 -2.989,-0.599 l -0.121,0.801 z" id="path4998" inkscape:connector-curvature="0" style="fill:#906a7f"/><polygon points="454.599,280.301 454.593,280.301 454.439,281.349 " id="polygon5000" style="fill:#ef7ea3"/><path d="m 501.771,278.504 c -10.62,4.03 -24.81,5.116 -43.657,1.663 l -0.659,0.025 c -0.985,0.391 -1.985,0.777 -3.015,1.156 -0.234,-0.339 -0.449,-0.677 -0.678,-1.016 l -0.51,0.02 c 45.518,73.964 99.971,-3.808 99.971,-3.808 l -51.452,1.96 z" id="path5002" inkscape:connector-curvature="0" style="fill:#ef7ea3"/><path d="m 453.762,280.333 c 0.229,0.339 0.443,0.676 0.678,1.016 l 0.153,-1.047 -0.831,0.031 z" id="path5004" inkscape:connector-curvature="0" style="fill:#906a7f"/><path d="m 454.439,281.349 c 1.029,-0.379 2.029,-0.766 3.015,-1.156 l -2.855,0.109 -0.16,1.047 z" id="path5006" inkscape:connector-curvature="0" style="fill:#906a7f"/><path d="m 526.713,189.375 c 0,0 -19.321,2.641 -38.237,14.433 3.628,6.78 6.726,14.444 8.053,22.39 l 30.184,-36.823 z" id="path5008" inkscape:connector-curvature="0" style="fill:#c188bb"/><path d="m 455.147,276.678 7.021,-46.288 c -0.128,0.224 -0.254,0.449 -0.381,0.675 l -6.671,45.651 0.031,-0.038 z" id="path5010" inkscape:connector-curvature="0" style="fill:#c188bb"/><path d="m 453.106,279.168 2.01,-2.452 6.671,-45.651 c -6.839,12.237 -10.695,27.949 -8.681,48.103 z" id="path5012" inkscape:connector-curvature="0" style="fill:#8f7987"/><path d="m 496.528,226.198 c -1.327,-7.945 -4.425,-15.61 -8.053,-22.39 -9.792,6.104 -19.469,14.666 -26.308,26.582 l -7.021,46.288 41.382,-50.48 z" id="path5014" inkscape:connector-curvature="0" style="fill:#8f7987"/><path d="m 487.572,260.396 c 12.696,-3.007 24.822,-1.779 35.121,1.016 16.998,-27.259 4.535,-71.605 4.535,-71.605 l -30.617,36.913 c 1.768,11.265 -0.072,23.063 -9.039,33.676 z" id="path5016" inkscape:connector-curvature="0" style="fill:#c188bb"/><path d="m 454.804,278.854 c 0.006,-0.005 0.011,-0.011 0.017,-0.016 l 0.322,-2.125 -0.031,0.038 -0.308,2.103 z" id="path5018" inkscape:connector-curvature="0" style="fill:#c188bb"/><path d="m 458.113,280.167 43.657,-1.663 c 0.243,-0.092 0.476,-0.192 0.715,-0.288 l -44.494,1.93 c 0.042,0.009 0.081,0.014 0.122,0.021 z" id="path5020" inkscape:connector-curvature="0" style="fill:#c188bb"/><path d="m 455.111,276.751 -2.005,2.417 c 0.387,0.083 0.753,0.148 1.136,0.228 0.188,-0.181 0.374,-0.363 0.562,-0.542 l 0.307,-2.103 z" id="path5022" inkscape:connector-curvature="0" style="fill:#8f7987"/><path d="m 454.82,278.839 c 10.814,-10.289 21.986,-15.893 32.752,-18.442 8.967,-10.613 10.807,-22.412 9.039,-33.677 l -41.469,49.994 -0.322,2.125 z" id="path5024" inkscape:connector-curvature="0" style="fill:#8f7987"/><path d="m 487.572,260.396 c -6.181,7.316 -15.752,14.069 -29.862,19.695 0.093,0.018 0.189,0.039 0.281,0.056 l 44.494,-1.93 c 9.266,-3.689 15.751,-9.657 20.208,-16.804 -10.298,-2.795 -22.424,-4.024 -35.121,-1.017 z" id="path5026" inkscape:connector-curvature="0" style="fill:#c175a1"/><path d="m 454.82,278.839 c -0.006,0.005 -0.011,0.01 -0.017,0.016 l -0.093,0.636 c 0.004,0 0.007,0.001 0.01,0.002 l 0.1,-0.654 z" id="path5028" inkscape:connector-curvature="0" style="fill:#c175a1"/><path d="m 454.242,279.396 c 0.158,0.033 0.312,0.062 0.469,0.094 l 0.093,-0.636 c -0.188,0.179 -0.374,0.361 -0.562,0.542 z" id="path5030" inkscape:connector-curvature="0" style="fill:#906a7f"/><path d="m 457.71,280.091 c 14.11,-5.626 23.682,-12.378 29.862,-19.695 -10.766,2.55 -21.938,8.154 -32.752,18.442 l -0.1,0.653 c 1.004,0.208 2.011,0.419 2.99,0.6 z" id="path5032" inkscape:connector-curvature="0" style="fill:#906a7f"/><path d="m 501.771,278.504 -43.657,1.663 c 18.847,3.453 33.036,2.368 43.657,-1.663 z" id="path5034" inkscape:connector-curvature="0" style="fill:#c175a1"/></g></g></g><path d="m 438.919,181.922 c 0,0 -17.721,33.956 5.397,81.835 23.116,47.877 40.031,46.042 51.501,49.557 11.47,3.514 5.365,7.77 5.365,7.77 0,0 -48.225,-2.611 -63.489,-62.872 -14.884,-58.774 1.226,-76.29 1.226,-76.29 z" id="path5036" inkscape:connector-curvature="0" style="fill:#93d3ea"/></g></svg>