<?xml version="1.0" encoding="UTF-8" standalone="no"?>
<!-- Generator: Adobe Illustrator 15.1.0, SVG Export Plug-In . SVG Version: 6.00 Build 0)  -->

<svg
   version="1.1"
   id="Ebene_1"
   x="0px"
   y="0px"
   width="482.48276"
   height="142.80299"
   viewBox="0 0 482.48275 142.80298"
   enable-background="new 0 0 841.89 595.28"
   xml:space="preserve"
   xmlns="http://www.w3.org/2000/svg"
   xmlns:svg="http://www.w3.org/2000/svg"
   xmlns:rdf="http://www.w3.org/1999/02/22-rdf-syntax-ns#"
   xmlns:cc="http://creativecommons.org/ns#"
   xmlns:dc="http://purl.org/dc/elements/1.1/"><metadata
     id="metadata5042"><rdf:RDF><cc:Work
         rdf:about=""><dc:format>image/svg+xml</dc:format><dc:type
           rdf:resource="http://purl.org/dc/dcmitype/StillImage" /></cc:Work></rdf:RDF></metadata><defs
     id="defs5040" /><g
     id="g4884"
     transform="translate(-70.740234,-178.281)"><path
       d="m 344.125,194.15625 -34.1582,0.24023 -28.14649,46.28516 -16.26172,-45.97266 -36.33203,0.25586 42.07422,118.94336 z"
       id="polygon4886"
       style="fill:#93d3ea;fill-opacity:1" /><path
       d="m 368.80469,194.15625 -72.82422,119.75195 33.27539,-0.23437 27.41211,-45.07617 15.83789,44.77148 38.37305,-0.26953 z"
       id="polygon4890"
       style="fill:#84c7af;fill-opacity:1" /><polygon
       points="205.658,194.156 199.214,313.1 238.458,313.908 "
       id="polygon4894"
       style="fill:#c188bb" /><path
       d="m 180.0332,190.25977 -36.17968,11.73828 -0.86133,44.76367 -37.92383,-32.18164 -34.328126,11.13672 106.865236,90.68554 z"
       id="polygon4896"
       style="fill:#ef7ea3;fill-opacity:1" /></g><g
     id="g4968"
     transform="translate(-70.740234,-178.281)"><g
       id="g4970"><g
         id="g4972"><g
           id="g4974"><polygon
             points="453.106,279.168 455.111,276.751 455.116,276.716 "
             id="polygon4976"
             style="fill:#84c7af" /><rect
             x="453.76001"
             y="280.31201"
             transform="matrix(0.9991,-0.0433,0.0433,0.9991,-11.7077,19.9218)"
             width="0.83499998"
             height="0.003"
             id="rect4978"
             style="fill:#84c7af" /><path
             d="m 453.106,279.168 c -2.015,-20.155 1.842,-35.867 8.681,-48.104 l 7.714,-52.783 c 0,0 -53.317,45.747 -15.931,101.763 0.224,-0.221 0.448,-0.432 0.672,-0.649 -0.383,-0.079 -0.749,-0.143 -1.136,-0.227 z"
             id="path4980"
             style="fill:#84c7af" /><path
             d="m 488.476,203.809 c -7.94,-14.838 -18.418,-25.435 -18.418,-25.435 l -7.89,52.016 c 6.839,-11.915 16.516,-20.477 26.308,-26.581 z"
             id="path4982"
             style="fill:#84c7af" /><path
             d="m 454.6,280.294 -0.001,0.007 2.855,-0.109 c 0.021,-0.008 0.042,-0.017 0.063,-0.025 z"
             id="path4984"
             style="fill:#84c7af" /><path
             d="m 455.143,276.714 41.469,-49.994 c -0.027,-0.174 -0.055,-0.348 -0.083,-0.521 l -41.381,50.48 z"
             id="path4986"
             style="fill:#84c7af" /><path
             d="m 453.57,280.045 c -0.106,0.104 -0.213,0.202 -0.318,0.307 l 0.508,-0.022 c -0.064,-0.095 -0.126,-0.189 -0.19,-0.285 z"
             id="path4988"
             style="fill:#ef7ea3" /><rect
             x="454.65201"
             y="279.487"
             width="0.0099999998"
             height="0.81300002"
             id="rect4990"
             style="fill:#ef7ea3" /><path
             d="m 457.991,280.147 c -0.092,-0.017 -0.188,-0.038 -0.281,-0.056 -0.064,0.025 -0.129,0.051 -0.192,0.076 z"
             id="path4992"
             style="fill:#ef7ea3" /><path
             d="m 502.485,278.217 50.722,-2.2 c 0,0 -12.442,-9.701 -30.514,-14.604 -4.457,7.147 -10.942,13.115 -20.208,16.804 z"
             id="path4994"
             style="fill:#ef7ea3" /><path
             d="m 454.594,280.294 0.117,-0.804 c -0.157,-0.032 -0.311,-0.061 -0.469,-0.094 -0.224,0.217 -0.448,0.428 -0.672,0.649 0.063,0.095 0.126,0.19 0.189,0.285 z"
             id="path4996"
             style="fill:#906a7f" /><path
             d="m 454.6,280.294 2.918,-0.126 c 0.063,-0.025 0.128,-0.051 0.192,-0.076 -0.979,-0.182 -1.986,-0.393 -2.989,-0.599 z"
             id="path4998"
             style="fill:#906a7f" /><polygon
             points="454.439,281.349 454.599,280.301 454.593,280.301 "
             id="polygon5000"
             style="fill:#ef7ea3" /><path
             d="m 501.771,278.504 c -10.62,4.03 -24.81,5.116 -43.657,1.663 l -0.659,0.025 c -0.985,0.391 -1.985,0.777 -3.015,1.156 -0.234,-0.339 -0.449,-0.677 -0.678,-1.016 l -0.51,0.02 c 45.518,73.964 99.971,-3.808 99.971,-3.808 z"
             id="path5002"
             style="fill:#ef7ea3" /><path
             d="m 453.762,280.333 c 0.229,0.339 0.443,0.676 0.678,1.016 l 0.153,-1.047 z"
             id="path5004"
             style="fill:#906a7f" /><path
             d="m 454.439,281.349 c 1.029,-0.379 2.029,-0.766 3.015,-1.156 l -2.855,0.109 z"
             id="path5006"
             style="fill:#906a7f" /><path
             d="m 526.713,189.375 c 0,0 -19.321,2.641 -38.237,14.433 3.628,6.78 6.726,14.444 8.053,22.39 z"
             id="path5008"
             style="fill:#c188bb" /><path
             d="m 455.147,276.678 7.021,-46.288 c -0.128,0.224 -0.254,0.449 -0.381,0.675 l -6.671,45.651 z"
             id="path5010"
             style="fill:#c188bb" /><path
             d="m 453.106,279.168 2.01,-2.452 6.671,-45.651 c -6.839,12.237 -10.695,27.949 -8.681,48.103 z"
             id="path5012"
             style="fill:#8f7987" /><path
             d="m 496.528,226.198 c -1.327,-7.945 -4.425,-15.61 -8.053,-22.39 -9.792,6.104 -19.469,14.666 -26.308,26.582 l -7.021,46.288 z"
             id="path5014"
             style="fill:#8f7987" /><path
             d="m 487.572,260.396 c 12.696,-3.007 24.822,-1.779 35.121,1.016 16.998,-27.259 4.535,-71.605 4.535,-71.605 l -30.617,36.913 c 1.768,11.265 -0.072,23.063 -9.039,33.676 z"
             id="path5016"
             style="fill:#c188bb" /><path
             d="m 454.804,278.854 c 0.006,-0.005 0.011,-0.011 0.017,-0.016 l 0.322,-2.125 -0.031,0.038 z"
             id="path5018"
             style="fill:#c188bb" /><path
             d="m 458.113,280.167 43.657,-1.663 c 0.243,-0.092 0.476,-0.192 0.715,-0.288 l -44.494,1.93 c 0.042,0.009 0.081,0.014 0.122,0.021 z"
             id="path5020"
             style="fill:#c188bb" /><path
             d="m 455.111,276.751 -2.005,2.417 c 0.387,0.083 0.753,0.148 1.136,0.228 0.188,-0.181 0.374,-0.363 0.562,-0.542 z"
             id="path5022"
             style="fill:#8f7987" /><path
             d="m 454.82,278.839 c 10.814,-10.289 21.986,-15.893 32.752,-18.442 8.967,-10.613 10.807,-22.412 9.039,-33.677 l -41.469,49.994 z"
             id="path5024"
             style="fill:#8f7987" /><path
             d="m 487.572,260.396 c -6.181,7.316 -15.752,14.069 -29.862,19.695 0.093,0.018 0.189,0.039 0.281,0.056 l 44.494,-1.93 c 9.266,-3.689 15.751,-9.657 20.208,-16.804 -10.298,-2.795 -22.424,-4.024 -35.121,-1.017 z"
             id="path5026"
             style="fill:#c175a1" /><path
             d="m 454.82,278.839 c -0.006,0.005 -0.011,0.01 -0.017,0.016 l -0.093,0.636 c 0.004,0 0.007,0.001 0.01,0.002 z"
             id="path5028"
             style="fill:#c175a1" /><path
             d="m 454.242,279.396 c 0.158,0.033 0.312,0.062 0.469,0.094 l 0.093,-0.636 c -0.188,0.179 -0.374,0.361 -0.562,0.542 z"
             id="path5030"
             style="fill:#906a7f" /><path
             d="m 457.71,280.091 c 14.11,-5.626 23.682,-12.378 29.862,-19.695 -10.766,2.55 -21.938,8.154 -32.752,18.442 l -0.1,0.653 c 1.004,0.208 2.011,0.419 2.99,0.6 z"
             id="path5032"
             style="fill:#906a7f" /><path
             d="m 501.771,278.504 -43.657,1.663 c 18.847,3.453 33.036,2.368 43.657,-1.663 z"
             id="path5034"
             style="fill:#c175a1" /></g></g></g><path
       d="m 438.919,181.922 c 0,0 -17.721,33.956 5.397,81.835 23.116,47.877 40.031,46.042 51.501,49.557 11.47,3.514 5.365,7.77 5.365,7.77 0,0 -48.225,-2.611 -63.489,-62.872 -14.884,-58.774 1.226,-76.29 1.226,-76.29 z"
       id="path5036"
       style="fill:#93d3ea" /></g></svg>
